<?xml version="1.0" encoding="UTF-8" standalone="no"?>
<svg width="26px" height="24px" viewBox="0 0 13 12" version="1.1" xmlns="http://www.w3.org/2000/svg" xmlns:xlink="http://www.w3.org/1999/xlink">
    <!-- Generator: Sketch 44.1 (41455) - http://www.bohemiancoding.com/sketch -->
    <title>Shape</title>
    <desc>Created with Sketch.</desc>
    <defs></defs>
    <g id="Page-1" stroke="none" stroke-width="1" fill="none" fill-rule="evenodd">
        <g id="画板组件-预览状态" transform="translate(-160.000000, -248.000000)" fill-rule="nonzero" fill="#000">
            <g id="画笔" transform="translate(154.000000, 242.000000)">
                <path d="M17.1717236,8.73370439 C16.6125261,9.44362137 15.0778169,11.4034174 13.8590987,12.9607361 L12.3120274,11.3218655 C13.7119361,10.0224583 15.4441943,8.41563687 16.0702396,7.84011712 C17.1842913,6.81606223 18.1609723,6.20656679 18.3731837,6.45562399 C18.505774,6.59396358 18.1531079,7.48845669 17.1717236,8.73370439 Z M13.5890349,13.3058387 C13.117053,13.9089422 12.7109421,14.4280825 12.4621842,14.7460224 L10.6302712,12.8834201 C10.9271281,12.6075319 11.421534,12.1484711 11.9945843,11.6164958 L13.5890349,13.3058387 Z M6.4,16.8999506 C6.4,16.8999506 8.3826995,17.1606817 8.3826995,15.2309446 C8.3826995,13.3602151 10.2049619,13.1913957 10.3167346,13.1828348 L12.1927758,15.090385 C11.1254867,19.3474628 6.4,16.8999506 6.4,16.8999506 Z" id="Shape"></path>
            </g>
        </g>
    </g>
</svg>